<svg width="32" height="32" viewBox="0 0 0.96 0.96" fill="none" xmlns="http://www.w3.org/2000/svg"><path style="color:#000;fill:#fff;stroke-width:.938782;stroke-linecap:round;stroke-linejoin:bevel;-inkscape-stroke:none" d="M.48.03a.045.045 0 0 0-.045.045v.562l-.21-.21A.045.045 0 0 0 .16.489l.287.289a.045.045 0 0 0 .064 0l.29-.289a.045.045 0 0 0 0-.063.045.045 0 0 0-.065 0l-.211.21V.074A.045.045 0 0 0 .48.03ZM.1.84C.078.84.06.86.06.885.06.91.078.93.1.93h.76C.882.93.9.91.9.885.9.86.882.84.86.84Z"/></svg>