<svg width="512" height="512" viewBox="0 0 135.47 135.47" xml:space="preserve" xmlns="http://www.w3.org/2000/svg"><path d="M74.633 38.08c1.597 1.445 8.306 2.875 6.672 5.242-1.308 1.894-8.391-.679-8.391-.679l.01 3.264s4.906 1.935 8.322 1.3v13.626h3.784s-.017-6.27.003-8.028c4.034 3.135 13.266-3.142 12.388 2.816-3.201.84-9.139 1.363-7.663 6.091.79 2.53 3.71 3.114 7.505 1.746l-.278 34.644c-.166 11.574 12.63 7.677 12.63 7.677l.08-2.985s-8.884 2.454-8.898-2.532c1.681.006 9.924.137 9.924.137 1.454-7.123-5.36-11.629-9.86-7.318V80.212l1.626-1.295 3.988 5.614h4.368l-5.842-7.849 5.512-6.02h-4.267l-5.49 5.89s.072-6.918.137-10.586c.228-2.216 5.185-3.061 5.185-3.061l.015-3.203s-3.97.199-5.266 2.264c.008-6.068.645-13.016-7.536-11.215 3.883-6.788-2.352-13.335-8.521-9.254-1.22-4.808-7.52-5.072-7.73-7.383-.312-3.45 6.403-1.174 6.403-1.174s.698-1.812 1.009-2.56c-10.771-4.682-13.942 4.349-9.82 7.701zm16.886 8.596c-.251 4.92-6.47 5.367-6.815.649-.38-5.173 7.073-5.696 6.815-.65zM97.17 58.24c.31 6.921-10.439 1.086 0 0m3.63 39.545s.2-3.391 3.47-3.358c3.376.035 3.631 3.43 3.631 3.43zM15.878 60.431l13.843-14.609h27.686L71.25 60.431h-6.921L53.947 49.474 33.183 71.387V49.474L22.8 60.431l20.764 21.913v7.304L15.878 60.431zm27.686 21.913V60.431h20.765z" fill="#fff"/></svg>