<?xml version="1.0" encoding="UTF-8"?>
<svg width="512" height="512" version="1.1" viewBox="0 0 135.47 135.47" xml:space="preserve" xmlns="http://www.w3.org/2000/svg"><path d="m74.633 38.08c1.5967 1.4447 8.3058 2.8749 6.6717 5.2416-1.3078 1.894-8.3907-0.67859-8.3907-0.67859l0.0098 3.2635s4.9062 1.935 8.322 1.3004v13.626h3.7844s-0.01705-6.2706 0.0029-8.028c4.0341 3.1351 13.266-3.142 12.388 2.8164-3.2012 0.84018-9.1388 1.3628-7.663 6.0907 0.78963 2.5297 3.7102 3.1142 7.505 1.7462l-0.27827 34.644c-0.16564 11.574 12.63 7.6764 12.63 7.6764l0.08-2.9844s-8.8834 2.4542-8.8974-2.5325c1.6809 6e-3 9.9234 0.13733 9.9234 0.13733 1.4538-7.123-5.3598-11.629-9.8604-7.3177l5.2e-4 -12.869 1.6258-1.295 3.988 5.6132h4.3683l-5.8416-7.8483 5.5114-6.0199h-4.2665l-5.4912 5.8904s0.0725-6.9187 0.1374-10.587c0.22824-2.2156 5.1854-3.0612 5.1854-3.0612l0.015-3.2026s-3.9707 0.19882-5.266 2.264c8e-3 -6.0679 0.64552-13.016-7.5358-11.215 3.8828-6.7881-2.3518-13.335-8.5212-9.2541-1.2192-4.808-7.5193-5.0722-7.7291-7.3825-0.31322-3.4502 6.4025-1.1742 6.4025-1.1742s0.69775-1.8124 1.0085-2.561c-10.771-4.6807-13.942 4.3496-9.8193 7.702zm16.886 8.5959c-0.25123 4.9196-6.4694 5.3675-6.8152 0.64867-0.37907-5.1728 7.0729-5.6951 6.8152-0.64867zm5.6513 11.565c0.30951 6.9214-10.439 1.0865-7e-5 -2e-5m3.6303 39.545s0.19909-3.3911 3.4696-3.3577c3.376 0.03447 3.6313 3.4301 3.6313 3.4301z" fill="#fff" stroke-width=".26458"/><path d="m15.878 60.431 13.843-14.609h27.686l13.843 14.609h-6.9214l-10.382-10.957-20.764 21.913 1.12e-4 -21.913-10.382 10.957 20.764 21.913v7.3042l-27.687-29.217zm27.686 21.913v-21.913h20.765z" fill="#fff" stroke-width=".40607"/></svg>
