<?xml version="1.0" encoding="UTF-8"?>
<svg width="1024" height="1024" version="1.1" viewBox="0 0 1024 1024" xmlns="http://www.w3.org/2000/svg"><path d="m139.61 131.73v738.59h748.72v-738.59h-748.72z" fill="#fff" stroke-width=".86322"/><path d="m0 0h1024v1024h-1024zm631 842.31c183.47-56.71 295.39-279.42 224.64-459.66-47.977-142.11-191.58-242.92-341.34-240.91-168.04-4.5189-329.86 122.29-359.33 289-53.512 271.49 201.15 499.04 476.02 411.58z" fill="#deb9ac"/><path d="m492.5 745.96c-72.392-6.4282-148.88-52.506-187.87-113.18-103.06-160.38-6.8146-363.94 183.87-388.86 46.035-6.0184 119.98 12.275 156.34 38.679 0.18641 0.13536-1.4913 1.8996-3.7282 3.9205-9.2177 8.3276-8.482 0.26986-8.2072 89.886l0.24253 79.121-4.323-0.34334c-5.0557-0.40153-16.227 1.9993-21.775 4.6798-3.8802 1.8747-3.8802 1.8747-7.529-6.2215-32.27-71.604-136.19-74.442-172.36-4.7076-51.85 99.956 75.382 192.56 154.92 112.76l7.4299-7.454 4.2172 3.7424c24.248 21.518 58.457 18.671 82.479-6.8647 16.512-17.552 16.882-19.707 16.12-93.995-0.57858-56.451-0.53824-58.309 1.2587-57.963 4.1242 0.79425 5.7189 8.7386 5.8199 28.994 0.093 18.653 0.093 18.653 3.1904 22.5 13.932 17.306 36.983 11.891 49.334-11.59 4.2835-8.1436 4.4791-7.7202 7.1245 15.423 9.4365 82.557-11.693 150.94-64.956 210.23-49.165 54.727-130.61 87.551-201.6 81.247zm19.779-57.699c4.4186-7.5768-0.59303-12.757-13.279-13.727-40.589-3.1029-82.53-24.957-116.5-60.704-21.628-22.76-30.314-39.997-40.987-81.335-4.2965-16.642-3.8754-16.083-11.23-14.917l-5.7831 0.91686c0.0515 7.1132 0.10304 6.6667 0.15456 10 0.40337 26.098 16.524 64.439 38.704 92.054 19.783 24.63 55.031 50.183 85.39 61.903 24.228 9.353 59.578 12.585 63.531 5.808zm-1.608-40.66c8.2185-7.0692 2.6587-14.536-11.73-15.752-49.976-4.2258-96.037-43.145-113.44-95.854-4.0438-12.245-4.9168-13.348-9.9278-12.548-9.8106 1.5658-10.621 5.9256-4.4447 23.914 18.245 53.138 63.443 90.449 122.37 101.02 11.606 2.0819 13.97 1.9746 17.172-0.77933zm-128.81-191.36c1.148-0.9625 4.3348-7.1019 7.0819-13.643 20.075-47.802 58.923-77.943 109.05-84.612 20.225-2.6906 20.9-19.795 0.69299-17.553-55.616 6.1706-105.46 43.836-125.4 94.751-5.6946 14.545-5.2349 19.611 1.9684 21.692 4.482 1.2946 4.279 1.3141 6.603-0.63448zm-40.444-4.5c0.80735-1.2375 2.8768-6.3 4.5988-11.25 10.125-29.104 19.424-42.352 56.417-80.369 23.106-23.746 56.545-39.787 92.063-44.163 14.759-1.8184 18.257-4.289 17.202-12.151-0.90408-6.7404-1.7855-7.1705-13.184-6.4331-49.094 3.1759-91.629 26.314-130.44 70.953-29.587 34.032-50.233 78.175-39.328 84.091 4.3822 2.3774 10.906 2.0283 12.672-0.67803zm277.56 99.442c-42.637-14.152-32.493-74.692 12.515-74.692 8.5129 0 11.77 0.39568 14.404 1.75 1.872 0.9625 4.0095 1.75 4.75 1.75 1.1172 0 1.3633-14.593 1.446-85.75 0.0548-47.162 0.41205-86.873 0.79385-88.245 1.5193-5.4601 6.8635-3.8896 16.246 4.7742 4.0484 3.7383 11.186 9.8208 15.861 13.517 48.491 38.336 64.934 70.393 51.652 100.7-9.7288 22.202-20.167 21.707-19.091-0.90467 1.342-28.192-3.633-37.869-30.695-59.704-14.637-11.81-12.71-22.437-13.082 72.141-0.36276 92.289 0.17028 86.535-9.1755 99.045-10.835 14.503-29.612 20.93-45.624 15.615zm-116.5-34.301c-7.6127-4.029-10.759-8.029-12.991-16.518-6.0665-23.068 24.665-38.328 40.931-20.324 16.002 17.712-6.9359 47.958-27.94 36.842z" fill="#0f1f31"/></svg>
