<svg width="1024" height="1024" xmlns="http://www.w3.org/2000/svg"><path d="M139.61 131.73v738.59h748.72V131.73H139.61z" fill="#fff"/><path d="M0 0h1024v1024H0zm631 842.31c183.47-56.71 295.39-279.42 224.64-459.66-47.977-142.11-191.58-242.92-341.34-240.91-168.04-4.519-329.86 122.29-359.33 289-53.512 271.49 201.15 499.04 476.02 411.58z" fill="#deb9ac"/><path d="M492.5 745.96c-72.392-6.428-148.88-52.506-187.87-113.18-103.06-160.38-6.815-363.94 183.87-388.86 46.035-6.018 119.98 12.275 156.34 38.679.186.135-1.491 1.9-3.728 3.92-9.218 8.328-8.482.27-8.207 89.886l.242 79.121-4.323-.343c-5.056-.401-16.227 2-21.775 4.68-3.88 1.875-3.88 1.875-7.529-6.222-32.27-71.604-136.19-74.442-172.36-4.707-51.85 99.956 75.382 192.56 154.92 112.76l7.43-7.454 4.217 3.742c24.248 21.518 58.457 18.671 82.48-6.864 16.511-17.552 16.881-19.707 16.12-93.995-.58-56.451-.539-58.31 1.258-57.963 4.124.794 5.719 8.738 5.82 28.994.093 18.653.093 18.653 3.19 22.5 13.932 17.306 36.983 11.89 49.334-11.59 4.284-8.144 4.48-7.72 7.125 15.423 9.436 82.557-11.693 150.94-64.956 210.23-49.165 54.727-130.61 87.55-201.6 81.247zm19.779-57.699c4.419-7.577-.593-12.757-13.279-13.727-40.589-3.103-82.53-24.957-116.5-60.704-21.628-22.76-30.314-39.997-40.987-81.335-4.296-16.642-3.875-16.083-11.23-14.917l-5.783.917c.051 7.113.103 6.667.154 10 .404 26.098 16.524 64.439 38.704 92.054 19.783 24.63 55.031 50.183 85.39 61.903 24.228 9.353 59.578 12.585 63.531 5.808zm-1.608-40.66c8.219-7.07 2.659-14.536-11.73-15.752-49.976-4.226-96.037-43.145-113.44-95.854-4.044-12.245-4.917-13.348-9.928-12.548-9.81 1.566-10.62 5.926-4.444 23.914 18.244 53.138 63.442 90.449 122.37 101.02 11.605 2.082 13.97 1.975 17.171-.78zm-128.81-191.36c1.148-.962 4.335-7.102 7.082-13.643 20.075-47.802 58.923-77.943 109.05-84.612 20.225-2.69 20.9-19.795.693-17.553-55.616 6.17-105.46 43.836-125.4 94.751-5.695 14.545-5.235 19.611 1.968 21.692 4.482 1.295 4.28 1.314 6.603-.634zm-40.444-4.5c.807-1.237 2.877-6.3 4.599-11.25 10.125-29.104 19.424-42.352 56.417-80.369 23.106-23.746 56.545-39.787 92.063-44.163 14.759-1.818 18.257-4.289 17.202-12.151-.904-6.74-1.786-7.17-13.184-6.433-49.094 3.176-91.63 26.314-130.44 70.953-29.587 34.032-50.233 78.175-39.328 84.09 4.382 2.378 10.906 2.03 12.672-.677zm277.56 99.442c-42.637-14.152-32.493-74.692 12.515-74.692 8.513 0 11.77.396 14.404 1.75 1.872.963 4.01 1.75 4.75 1.75 1.117 0 1.363-14.593 1.446-85.75.055-47.162.412-86.873.794-88.245 1.52-5.46 6.863-3.89 16.246 4.774 4.048 3.739 11.186 9.821 15.86 13.517 48.492 38.336 64.935 70.393 51.653 100.7-9.729 22.202-20.167 21.707-19.091-.904 1.342-28.192-3.633-37.87-30.695-59.704-14.637-11.81-12.71-22.437-13.082 72.14-.363 92.29.17 86.536-9.176 99.046-10.835 14.503-29.612 20.93-45.624 15.615zm-116.5-34.301c-7.613-4.029-10.759-8.029-12.991-16.518-6.066-23.068 24.665-38.328 40.931-20.324 16.002 17.712-6.936 47.958-27.94 36.842z" fill="#0f1f31"/></svg>